<svg width="39" height="43" viewBox="0 0 39 43" fill="none" xmlns="http://www.w3.org/2000/svg">
<path fill-rule="evenodd" clip-rule="evenodd" d="M24.968 22.2643C24.6519 21.3705 24.0665 20.5968 23.2925 20.0495C22.5185 19.5022 21.5938 19.2083 20.6459 19.2083V18.0625H18.3542V19.2083C17.1386 19.2083 15.9728 19.6912 15.1133 20.5508C14.2538 21.4103 13.7709 22.5761 13.7709 23.7917C13.7709 25.0072 14.2538 26.173 15.1133 27.0326C15.9728 27.8921 17.1386 28.375 18.3542 28.375V32.9583C17.3573 32.9583 16.5083 32.3224 16.192 31.4309C16.1451 31.2851 16.0694 31.1501 15.9694 31.034C15.8694 30.918 15.7472 30.8231 15.6099 30.7551C15.4726 30.6871 15.3231 30.6473 15.1701 30.6381C15.0172 30.6289 14.864 30.6504 14.7195 30.7015C14.5751 30.7525 14.4423 30.832 14.3291 30.9352C14.2159 31.0385 14.1246 31.1634 14.0605 31.3025C13.9964 31.4417 13.9609 31.5923 13.956 31.7454C13.9511 31.8986 13.977 32.0511 14.0321 32.1941C14.3482 33.0878 14.9335 33.8616 15.7076 34.4088C16.4816 34.9561 17.4062 35.25 18.3542 35.25V36.3958H20.6459V35.25C21.8615 35.25 23.0272 34.7671 23.8868 33.9076C24.7463 33.048 25.2292 31.8822 25.2292 30.6667C25.2292 29.4511 24.7463 28.2853 23.8868 27.4258C23.0272 26.5662 21.8615 26.0833 20.6459 26.0833V21.5C21.1198 21.4999 21.5821 21.6467 21.9691 21.9202C22.3562 22.1938 22.6489 22.5806 22.8069 23.0274C22.9081 23.314 23.119 23.5486 23.3932 23.6797C23.529 23.7446 23.6762 23.7821 23.8265 23.7901C23.9767 23.7981 24.1271 23.7765 24.269 23.7264C24.4109 23.6762 24.5415 23.5987 24.6535 23.4981C24.7654 23.3975 24.8564 23.2758 24.9213 23.1401C24.9862 23.0043 25.0237 22.8571 25.0317 22.7068C25.0397 22.5565 25.0181 22.4062 24.968 22.2643ZM18.3542 21.5C17.7464 21.5 17.1635 21.7414 16.7338 22.1712C16.304 22.601 16.0625 23.1839 16.0625 23.7917C16.0625 24.3995 16.304 24.9823 16.7338 25.4121C17.1635 25.8419 17.7464 26.0833 18.3542 26.0833V21.5ZM20.6459 32.9583C21.2537 32.9583 21.8366 32.7169 22.2663 32.2871C22.6961 31.8573 22.9375 31.2745 22.9375 30.6667C22.9375 30.0589 22.6961 29.476 22.2663 29.0462C21.8366 28.6164 21.2537 28.375 20.6459 28.375V32.9583Z" fill="#E0E0E0"/>
<path fill-rule="evenodd" clip-rule="evenodd" d="M7.07116 3.87823C9.88304 2.50208 14.4962 0.875 19.5447 0.875C24.4878 0.875 28.9795 2.43448 31.7765 3.79229L31.9346 3.86906C32.7779 4.28615 33.4586 4.68031 33.9375 5L29.7048 11.1875C39.4627 21.1631 47 42.1216 19.5447 42.1216C-7.91061 42.1216 -0.576127 21.5435 9.26658 11.1875L5.06137 5C5.38564 4.78802 5.797 4.54167 6.28741 4.28042C6.53033 4.14979 6.79158 4.01573 7.07116 3.87937V3.87823ZM26.9846 11.105L30.3728 6.15156C27.2218 6.37844 23.4726 7.11865 19.8632 8.16365C17.2851 8.90844 14.4205 8.795 11.7679 8.30573C11.0995 8.1818 10.4356 8.03428 9.77762 7.86344L11.9776 11.1027C16.6927 12.7814 22.2684 12.7814 26.9846 11.105ZM10.6542 13.0552C16.1714 15.1865 22.8023 15.1865 28.3195 13.0529C30.6225 15.4806 32.549 18.2394 34.0349 21.2376C35.5841 24.3978 36.4274 27.5569 36.2899 30.2794C36.157 32.9068 35.1235 35.1515 32.763 36.8198C30.3029 38.558 26.1653 39.8299 19.5436 39.8299C12.9149 39.8299 8.75783 38.5798 6.27481 36.861C3.89721 35.2133 2.85335 32.9996 2.70554 30.4077C2.55085 27.715 3.37585 24.572 4.91929 21.39C6.39168 18.3558 8.44616 15.4351 10.6542 13.0552ZM9.33648 5.36208C10.2531 5.63479 11.2111 5.87198 12.1827 6.05187C14.6463 6.50562 17.1167 6.57208 19.225 5.96135C21.6819 5.2456 24.1808 4.68269 26.7073 4.27583C24.599 3.64104 22.1331 3.16667 19.5436 3.16667C15.5962 3.16667 11.9146 4.26781 9.33648 5.36208Z" fill="#E0E0E0"/>
</svg>
