<svg width="45" height="45" viewBox="0 0 45 45" fill="none" xmlns="http://www.w3.org/2000/svg">
<path d="M22.5 42.1875C17.2786 42.1875 12.271 40.1133 8.57883 36.4212C4.88671 32.729 2.8125 27.7214 2.8125 22.5C2.8125 17.2786 4.88671 12.271 8.57883 8.57883C12.271 4.88671 17.2786 2.8125 22.5 2.8125C27.7214 2.8125 32.729 4.88671 36.4212 8.57883C40.1133 12.271 42.1875 17.2786 42.1875 22.5C42.1875 27.7214 40.1133 32.729 36.4212 36.4212C32.729 40.1133 27.7214 42.1875 22.5 42.1875ZM22.5 45C28.4674 45 34.1903 42.6295 38.4099 38.4099C42.6295 34.1903 45 28.4674 45 22.5C45 16.5326 42.6295 10.8097 38.4099 6.5901C34.1903 2.37053 28.4674 0 22.5 0C16.5326 0 10.8097 2.37053 6.5901 6.5901C2.37053 10.8097 0 16.5326 0 22.5C0 28.4674 2.37053 34.1903 6.5901 38.4099C10.8097 42.6295 16.5326 45 22.5 45Z" fill="#E0E0E0"/>
<path d="M31.8235 28.1643C32.0904 28.1015 32.37 28.1181 32.6276 28.2121C32.8853 28.3061 33.1099 28.4734 33.2737 28.6933C33.4375 28.9133 33.5334 29.1764 33.5495 29.4502C33.5657 29.724 33.5015 29.9966 33.3647 30.2343C32.2541 32.1591 30.6561 33.7573 28.7315 34.8682C26.807 35.9791 24.6237 36.5635 22.4016 36.5625C20.1794 36.5635 17.9962 35.9791 16.0716 34.8682C14.147 33.7573 12.549 32.1591 11.4384 30.2343C11.3017 29.9966 11.2374 29.724 11.2536 29.4502C11.2698 29.1764 11.3657 28.9133 11.5295 28.6933C11.6933 28.4734 11.9178 28.3061 12.1755 28.2121C12.4332 28.1181 12.7127 28.1015 12.9797 28.1643H12.9938L13.0416 28.1784L13.23 28.2206L13.9388 28.3753C14.5434 28.5047 15.3872 28.679 16.3491 28.8506C18.2981 29.1993 20.6297 29.5312 22.4016 29.5312C24.1734 29.5312 26.5078 29.1993 28.4541 28.8506C29.4981 28.6628 30.538 28.4527 31.5731 28.2206L31.7616 28.1784L31.8094 28.1672L31.8235 28.1615V28.1643ZM13.3763 12.8418C15.5222 8.83685 24.6825 12.5043 16.0538 22.5C3.40876 18.0112 9.44439 10.4118 13.3763 12.8418ZM31.6238 12.8418C35.5556 10.4118 41.5913 18.0112 28.9463 22.5C20.3203 12.5043 29.4806 8.83685 31.6238 12.8418Z" fill="#E0E0E0"/>
</svg>
