<svg width="19" height="17" viewBox="0 0 19 17" fill="none" xmlns="http://www.w3.org/2000/svg">
<path d="M5.83917 0.333252C6.2225 0.333252 6.59583 0.450752 6.90917 0.668252L7.03917 0.768252L9.01833 2.41659H15.4583C15.9107 2.41644 16.3478 2.57982 16.6892 2.87662C17.0306 3.17341 17.2531 3.58361 17.3158 4.03158L17.3292 4.16325L17.3333 4.29159V8.08325C16.948 7.88597 16.5144 7.80244 16.0833 7.84242V4.29159C16.0833 4.14055 16.0286 3.99463 15.9294 3.88081C15.8301 3.76699 15.693 3.69296 15.5433 3.67242L15.4583 3.66659H9.0175L7.03917 5.31575C6.74521 5.56036 6.38348 5.70924 6.0025 5.74242L5.83917 5.74992L1.91667 5.74908V11.7916C1.91667 12.1083 2.15167 12.3699 2.45667 12.4108L2.54167 12.4166H8.44333C8.24541 12.8026 8.15067 13.2332 8.16833 13.6666H2.54167C2.06656 13.6666 1.60915 13.4863 1.26187 13.1621C0.914596 12.8379 0.703353 12.3939 0.670835 11.9199L0.666668 11.7916V2.20825C0.66661 1.73315 0.846914 1.27573 1.17114 0.928458C1.49537 0.581181 1.93934 0.369937 2.41333 0.337419L2.54167 0.333252H5.83917ZM5.83917 1.58325H2.54167C2.39064 1.58326 2.24472 1.63795 2.13089 1.73722C2.01707 1.83649 1.94304 1.97362 1.9225 2.12325L1.91667 2.20825V4.49908L5.83917 4.49992C5.95552 4.49978 6.06952 4.46717 6.16833 4.40575L6.23917 4.35575L7.815 3.04075L6.24 1.72825C6.15034 1.65342 6.0415 1.60521 5.92583 1.58909L5.83917 1.58325ZM12.125 11.1666C12.6223 11.1666 13.0992 10.969 13.4508 10.6174C13.8025 10.2658 14 9.78887 14 9.29158C14 8.7943 13.8025 8.31739 13.4508 7.96576C13.0992 7.61413 12.6223 7.41658 12.125 7.41658C11.6277 7.41658 11.1508 7.61413 10.7992 7.96576C10.4475 8.31739 10.25 8.7943 10.25 9.29158C10.25 9.78887 10.4475 10.2658 10.7992 10.6174C11.1508 10.969 11.6277 11.1666 12.125 11.1666ZM12.125 16.1666C14.3575 16.1666 15.25 14.8591 15.25 13.5624C15.25 12.6999 14.65 11.9999 13.9108 11.9999H10.3392C9.6 11.9999 9 12.6999 9 13.5624C9 14.8641 9.8925 16.1666 12.125 16.1666ZM17.75 10.1249C17.75 10.5117 17.5964 10.8826 17.3229 11.1561C17.0494 11.4296 16.6784 11.5833 16.2917 11.5833C15.9049 11.5833 15.534 11.4296 15.2605 11.1561C14.987 10.8826 14.8333 10.5117 14.8333 10.1249C14.8333 9.73814 14.987 9.36721 15.2605 9.09372C15.534 8.82023 15.9049 8.66658 16.2917 8.66658C16.6784 8.66658 17.0494 8.82023 17.3229 9.09372C17.5964 9.36721 17.75 9.73814 17.75 10.1249ZM15.5967 15.3333C15.9333 14.7833 16.0817 14.1624 16.0817 13.5624C16.0809 13.1652 15.9897 12.7733 15.815 12.4166H17.0983C17.69 12.4166 18.17 12.9066 18.17 13.5108C18.17 14.4191 17.4558 15.3333 15.67 15.3333H15.5967Z" fill="white"/>
</svg>
