<svg width="16" height="20" viewBox="0 0 16 20" fill="none" xmlns="http://www.w3.org/2000/svg">
<path d="M10.5 16.875C10.5 17.0408 10.5658 17.1997 10.6831 17.3169C10.8003 17.4342 10.9592 17.5 11.125 17.5H12.375C12.5408 17.5 12.6997 17.4342 12.8169 17.3169C12.9342 17.1997 13 17.0408 13 16.875V9.375C13 9.20924 12.9342 9.05027 12.8169 8.93306C12.6997 8.81585 12.5408 8.75 12.375 8.75H11.125C10.9592 8.75 10.8003 8.81585 10.6831 8.93306C10.5658 9.05027 10.5 9.20924 10.5 9.375V16.875ZM7.375 17.5C7.20924 17.5 7.05027 17.4342 6.93306 17.3169C6.81585 17.1997 6.75 17.0408 6.75 16.875V11.875C6.75 11.7092 6.81585 11.5503 6.93306 11.4331C7.05027 11.3158 7.20924 11.25 7.375 11.25H8.625C8.79076 11.25 8.94973 11.3158 9.06694 11.4331C9.18415 11.5503 9.25 11.7092 9.25 11.875V16.875C9.25 17.0408 9.18415 17.1997 9.06694 17.3169C8.94973 17.4342 8.79076 17.5 8.625 17.5H7.375ZM3.625 17.5C3.45924 17.5 3.30027 17.4342 3.18306 17.3169C3.06585 17.1997 3 17.0408 3 16.875V14.375C3 14.2092 3.06585 14.0503 3.18306 13.9331C3.30027 13.8158 3.45924 13.75 3.625 13.75H4.875C5.04076 13.75 5.19973 13.8158 5.31694 13.9331C5.43415 14.0503 5.5 14.2092 5.5 14.375V16.875C5.5 17.0408 5.43415 17.1997 5.31694 17.3169C5.19973 17.4342 5.04076 17.5 4.875 17.5H3.625Z" fill="white"/>
<path d="M15.5 17.5V5.625L9.875 0H3C2.33696 0 1.70107 0.263392 1.23223 0.732233C0.763392 1.20107 0.5 1.83696 0.5 2.5V17.5C0.5 18.163 0.763392 18.7989 1.23223 19.2678C1.70107 19.7366 2.33696 20 3 20H13C13.663 20 14.2989 19.7366 14.7678 19.2678C15.2366 18.7989 15.5 18.163 15.5 17.5ZM9.875 3.75C9.875 4.24728 10.0725 4.72419 10.4242 5.07583C10.7758 5.42746 11.2527 5.625 11.75 5.625H14.25V17.5C14.25 17.8315 14.1183 18.1495 13.8839 18.3839C13.6495 18.6183 13.3315 18.75 13 18.75H3C2.66848 18.75 2.35054 18.6183 2.11612 18.3839C1.8817 18.1495 1.75 17.8315 1.75 17.5V2.5C1.75 2.16848 1.8817 1.85054 2.11612 1.61612C2.35054 1.3817 2.66848 1.25 3 1.25H9.875V3.75Z" fill="white"/>
</svg>
