<svg width="16" height="20" viewBox="0 0 16 20" fill="none" xmlns="http://www.w3.org/2000/svg">
<path d="M11.7708 2.91663H13.8333C14.0543 2.91663 14.2663 3.00442 14.4226 3.1607C14.5789 3.31698 14.6667 3.52895 14.6667 3.74996V17.5C14.6667 17.721 14.5789 17.9329 14.4226 18.0892C14.2663 18.2455 14.0543 18.3333 13.8333 18.3333H2.16667C1.94565 18.3333 1.73369 18.2455 1.57741 18.0892C1.42113 17.9329 1.33333 17.721 1.33333 17.5V3.74996C1.33333 3.52895 1.42113 3.31698 1.57741 3.1607C1.73369 3.00442 1.94565 2.91663 2.16667 2.91663H5.08333V4.16663H10.9167V2.91663H11.7708Z" stroke="white" stroke-width="2" stroke-linejoin="round"/>
<path d="M9.25 7.91663L5.91667 11.2504H10.085L6.75 14.5837M5.08333 1.66663H10.9167V4.16663H5.08333V1.66663Z" stroke="white" stroke-width="2" stroke-linecap="round" stroke-linejoin="round"/>
</svg>
