<svg width="9" height="12" viewBox="0 0 9 12" fill="none" xmlns="http://www.w3.org/2000/svg">
<path d="M4.5 0.375C2.94919 0.375 1.6875 1.63669 1.6875 3.1875V4.875H1.125C0.826631 4.875 0.540483 4.99353 0.329505 5.2045C0.118526 5.41548 0 5.70163 0 6V10.5C0 10.7984 0.118526 11.0845 0.329505 11.2955C0.540483 11.5065 0.826631 11.625 1.125 11.625H7.875C8.17337 11.625 8.45952 11.5065 8.6705 11.2955C8.88147 11.0845 9 10.7984 9 10.5V6C9 5.70163 8.88147 5.41548 8.6705 5.2045C8.45952 4.99353 8.17337 4.875 7.875 4.875H7.3125V3.1875C7.3125 1.63669 6.05081 0.375 4.5 0.375ZM2.8125 3.1875C2.8125 2.25713 3.56962 1.5 4.5 1.5C5.43038 1.5 6.1875 2.25713 6.1875 3.1875V4.875H2.8125V3.1875ZM5.0625 9.21919V10.5H3.9375V9.21919C3.74084 9.10657 3.58293 8.937 3.48459 8.73282C3.38625 8.52865 3.3521 8.29947 3.38663 8.0755C3.42117 7.85152 3.52278 7.64328 3.67806 7.47821C3.83333 7.31315 4.03499 7.19902 4.25644 7.15087C4.42092 7.11451 4.59147 7.11552 4.75551 7.15385C4.91955 7.19217 5.0729 7.26683 5.20424 7.37232C5.33558 7.4778 5.44157 7.61142 5.5144 7.76333C5.58722 7.91523 5.62502 8.08154 5.625 8.25C5.62468 8.44673 5.57251 8.6399 5.47376 8.81005C5.37501 8.9802 5.23316 9.12132 5.0625 9.21919Z" fill="#3D3D3D"/>
</svg>
